<svg width="132"  viewBox="0 0 163 32" fill="none" xmlns="http://www.w3.org/2000/svg">
<path d="M15.9844 22.9294C16.142 22.8359 16.3381 22.8361 16.4955 22.9299L22.1119 26.2765L22.112 26.2766C22.777 26.6732 23.5508 26.08 23.3858 25.3809L21.8972 19.0878C21.854 18.9054 21.9165 18.7142 22.0591 18.5925L27.0258 14.3525L27.026 14.3523C27.5859 13.8748 27.2968 12.9572 26.54 12.8979L26.5374 12.8977L20.0008 12.351C19.8167 12.3356 19.6561 12.22 19.5831 12.0503L17.0253 6.10363L17.0247 6.10205C16.7372 5.42741 15.742 5.42741 15.4545 6.10205L15.4537 6.10401L12.8959 12.0373C12.8228 12.2068 12.6623 12.3223 12.4784 12.3377L5.9418 12.8843L5.93919 12.8845L5.93919 12.8845C5.18239 12.9439 4.89334 13.8615 5.45319 14.339L5.45336 14.3391L10.4201 18.5791C10.5627 18.7008 10.6252 18.8921 10.582 19.0745L9.09342 25.3676L15.9844 22.9294ZM15.9844 22.9294L10.3681 26.2628L10.3672 26.2633M15.9844 22.9294L10.3672 26.2633M10.3672 26.2633C9.70226 26.6598 8.92858 26.0668 9.09337 25.3678L10.3672 26.2633Z" fill="#FFBA79" stroke="#FFBA79" stroke-linejoin="round"/>
<path d="M48.4649 22.9294C48.6225 22.8359 48.8186 22.8361 48.976 22.9299L54.5923 26.2765L54.5925 26.2766C55.2575 26.6732 56.0312 26.08 55.8662 25.3809L54.3776 19.0878C54.3345 18.9054 54.397 18.7142 54.5396 18.5925L59.5063 14.3525L59.5065 14.3523C60.0663 13.8748 59.7773 12.9572 59.0205 12.8979L59.0179 12.8977L52.4813 12.351C52.2972 12.3356 52.1366 12.22 52.0636 12.0503L49.5058 6.10363L49.5051 6.10205C49.2177 5.42741 48.2224 5.42741 47.935 6.10205L47.9342 6.10401L45.3764 12.0373C45.3033 12.2068 45.1428 12.3223 44.9589 12.3377L38.4223 12.8843L38.4197 12.8845L38.4197 12.8845C37.6629 12.9439 37.3738 13.8615 37.9337 14.339L37.9338 14.3391L42.9006 18.5791C43.0431 18.7008 43.1057 18.8921 43.0625 19.0745L41.5739 25.3676L48.4649 22.9294ZM48.4649 22.9294L42.8485 26.2628L42.8476 26.2633M48.4649 22.9294L42.8476 26.2633M42.8476 26.2633C42.1827 26.6598 41.409 26.0668 41.5738 25.3678L42.8476 26.2633Z" fill="#FFBA79" stroke="#FFBA79" stroke-linejoin="round"/>
<path d="M80.9444 22.9294C81.102 22.8359 81.2981 22.8361 81.4555 22.9299L87.0718 26.2765L87.072 26.2766C87.737 26.6732 88.5107 26.08 88.3457 25.3809L86.8571 19.0878C86.814 18.9054 86.8765 18.7142 87.0191 18.5925L91.9858 14.3525L91.986 14.3523C92.5458 13.8748 92.2568 12.9572 91.5 12.8979L91.4974 12.8977L84.9608 12.351C84.7767 12.3356 84.6161 12.22 84.5431 12.0503L81.9853 6.10363L81.9846 6.10205C81.6972 5.42741 80.7019 5.42741 80.4145 6.10205L80.4136 6.10401L77.8558 12.0373C77.7828 12.2068 77.6223 12.3223 77.4384 12.3377L70.9018 12.8843L70.8992 12.8845L70.8992 12.8845C70.1424 12.9439 69.8533 13.8615 70.4131 14.339L70.4133 14.3391L75.3801 18.5791C75.5226 18.7008 75.5851 18.8921 75.542 19.0745L74.0534 25.3676L80.9444 22.9294ZM80.9444 22.9294L75.328 26.2628L75.3271 26.2633M80.9444 22.9294L75.3271 26.2633M75.3271 26.2633C74.6622 26.6598 73.8885 26.0668 74.0533 25.3678L75.3271 26.2633Z" fill="#FFBA79" stroke="#FFBA79" stroke-linejoin="round"/>
<path d="M113.424 22.9294C113.581 22.8359 113.778 22.8361 113.935 22.9299L119.551 26.2765L119.551 26.2766C120.216 26.6732 120.99 26.08 120.825 25.3809L119.337 19.0878C119.293 18.9054 119.356 18.7142 119.499 18.5925L124.465 14.3525L124.465 14.3523C125.025 13.8748 124.736 12.9572 123.979 12.8979L123.977 12.8977L117.44 12.351C117.256 12.3356 117.096 12.22 117.023 12.0503L114.465 6.10363L114.464 6.10205C114.177 5.42741 113.181 5.42741 112.894 6.10205L112.893 6.10401L110.335 12.0373C110.262 12.2068 110.102 12.3223 109.918 12.3377L103.381 12.8843L103.379 12.8845L103.379 12.8845C102.622 12.9439 102.333 13.8615 102.893 14.339L102.893 14.3391L107.86 18.5791C108.002 18.7008 108.065 18.8921 108.021 19.0745L106.533 25.3676L113.424 22.9294ZM113.424 22.9294L107.808 26.2628L107.807 26.2633M113.424 22.9294L107.807 26.2633M107.807 26.2633C107.142 26.6598 106.368 26.0668 106.533 25.3678L107.807 26.2633Z" fill="#FFBA79" stroke="#FFBA79" stroke-linejoin="round"/>
<path d="M145.904 22.9294C146.062 22.8359 146.258 22.8361 146.415 22.9299L152.032 26.2765L152.032 26.2766C152.697 26.6732 153.471 26.08 153.306 25.3809L151.817 19.0878C151.774 18.9054 151.836 18.7142 151.979 18.5925L156.946 14.3525L156.946 14.3523C157.506 13.8748 157.217 12.9572 156.46 12.8979L156.457 12.8977L149.921 12.351C149.737 12.3356 149.576 12.22 149.503 12.0503L146.945 6.10363L146.945 6.10205C146.657 5.42741 145.662 5.42741 145.374 6.10205L145.374 6.10401L142.816 12.0373C142.743 12.2068 142.582 12.3223 142.398 12.3377L135.862 12.8843L135.859 12.8845L135.859 12.8845C135.102 12.9439 134.813 13.8615 135.373 14.339L135.373 14.3391L140.34 18.5791C140.483 18.7008 140.545 18.8921 140.502 19.0745L139.013 25.3676L145.904 22.9294ZM145.904 22.9294L140.288 26.2628L140.287 26.2633M145.904 22.9294L140.287 26.2633M140.287 26.2633C139.622 26.6598 138.849 26.0668 139.013 25.3678L140.287 26.2633Z" fill="#FFBA79" stroke="#FFBA79" stroke-linejoin="round"/>
</svg>
